<svg xmlns="http://www.w3.org/2000/svg" width="438.53" height="438.537" viewBox="0 0 438.53 438.537">
  <g id="add-red" transform="translate(-0.003)">
    <g id="Group_108" data-name="Group 108">
      <path id="Path_187" data-name="Path 187" d="M414.41,24.123Q390.295,0,356.315,0H82.228q-33.972,0-58.1,24.123T0,82.225V356.309q0,33.971,24.123,58.1t58.1,24.126H356.312q33.972,0,58.1-24.126t24.126-58.1V82.225Q438.532,48.252,414.41,24.123ZM365.449,237.539a18.526,18.526,0,0,1-18.275,18.275H255.82v91.358a18.544,18.544,0,0,1-18.279,18.274H201a18.533,18.533,0,0,1-18.273-18.274V255.814H91.363a18.532,18.532,0,0,1-18.271-18.275V200.992a18.528,18.528,0,0,1,18.271-18.273h91.363V91.36A18.535,18.535,0,0,1,201,73.085h36.543A18.546,18.546,0,0,1,255.821,91.36v91.36h91.354a18.523,18.523,0,0,1,18.275,18.273v36.546Z" fill="#9a0036"/>
    </g>
  </g>
</svg>
