<svg xmlns="http://www.w3.org/2000/svg" width="438.483" height="427.52" viewBox="0 0 438.483 427.52">
  <g id="back-white" transform="translate(0 -5.482)">
    <g id="Group_111" data-name="Group 111">
      <g id="Group_110" data-name="Group 110">
        <path id="Path_188" data-name="Path 188" d="M431.168,230.762c-23.552-75.776-98.3-127.488-187.9-129.024V13.162a7.874,7.874,0,0,0-7.68-7.68,8.258,8.258,0,0,0-4.608,1.536L3.136,171.882c-3.584,2.56-4.1,7.168-1.536,10.752l1.536,1.536,227.84,163.84a7.946,7.946,0,0,0,10.752-1.536,8.258,8.258,0,0,0,1.536-4.608V253.8c55.3,0,101.888,26.112,118.272,65.536,13.824,33.792,2.56,70.144-30.208,100.352-3.072,3.072-3.584,7.68-.512,10.752a8.222,8.222,0,0,0,5.632,2.56h6.144a5.814,5.814,0,0,0,4.1-1.536C421.952,381.8,454.208,304.49,431.168,230.762Z" fill="#fff"/>
      </g>
    </g>
  </g>
</svg>
