<svg xmlns="http://www.w3.org/2000/svg" width="443.189" height="435.597" viewBox="0 0 443.189 435.597">
  <g id="backup" transform="translate(0 -3.796)">
    <path id="Path_243" data-name="Path 243" d="M294.558,88.979H9.277A9.273,9.273,0,0,0,0,98.251v84.315a9.272,9.272,0,0,0,9.277,9.273h285.28a9.271,9.271,0,0,0,9.271-9.273V98.251A9.267,9.267,0,0,0,294.558,88.979Zm-142.641,73.4H30.15V113.673H151.916v48.709Zm142.641,50.967H9.277A9.274,9.274,0,0,0,0,222.621v84.312a9.273,9.273,0,0,0,9.277,9.281h285.28a9.272,9.272,0,0,0,9.271-9.281v-84.3A9.273,9.273,0,0,0,294.558,213.349ZM151.917,285.5H30.15V236.794H151.916V285.5Zm142.641,51.035H9.277A9.27,9.27,0,0,0,0,345.808v84.311a9.273,9.273,0,0,0,9.277,9.274h285.28a9.272,9.272,0,0,0,9.271-9.274V345.808A9.265,9.265,0,0,0,294.558,336.537ZM151.917,412.32H30.15V363.612H151.916V412.32ZM443.189,13.065V97.377a9.272,9.272,0,0,1-9.282,9.272H328.057v-6.2a34.529,34.529,0,0,0-34.5-34.487h-2.287V28.491H169.512V65.966h-30.15V13.071A9.273,9.273,0,0,1,148.634,3.8H433.907A9.266,9.266,0,0,1,443.189,13.065Zm0,124.371v84.312a9.272,9.272,0,0,1-9.282,9.278H328.057v-6.2a34.326,34.326,0,0,0-6.467-20.033,34.292,34.292,0,0,0,6.467-20.028v-56.6h105.85A9.273,9.273,0,0,1,443.189,137.436Zm0,123.183v84.312a9.274,9.274,0,0,1-9.282,9.274H328.057v-6.2a34.263,34.263,0,0,0-6.02-19.432,34.264,34.264,0,0,0,6.02-19.437v-57.79h105.85A9.272,9.272,0,0,1,443.189,260.619Z" fill="#fff"/>
  </g>
</svg>
