<?xml version="1.0"?>
<svg xmlns="http://www.w3.org/2000/svg" xmlns:xlink="http://www.w3.org/1999/xlink" xmlns:svgjs="http://svgjs.com/svgjs" version="1.1" width="512" height="512" x="0" y="0" viewBox="0 0 24 24" style="enable-background:new 0 0 512 512" xml:space="preserve" class="">
    <g>
        <g xmlns="http://www.w3.org/2000/svg">
            <path d="m3.75 15h2.5c.414 0 .75-.336.75-.75v-2.5c0-.414-.336-.75-.75-.75h-2.5c-.414 0-.75.336-.75.75v2.5c0 .414.336.75.75.75z" fill="#000000" data-original="#000000" style="" class=""/>
            <path d="m3.75 21h2.5c.414 0 .75-.336.75-.75v-2.5c0-.414-.336-.75-.75-.75h-2.5c-.414 0-.75.336-.75.75v2.5c0 .414.336.75.75.75z" fill="#000000" data-original="#000000" style="" class=""/>
            <path d="m10.75 15h2.5c.414 0 .75-.336.75-.75v-2.5c0-.414-.336-.75-.75-.75h-2.5c-.414 0-.75.336-.75.75v2.5c0 .414.336.75.75.75z" fill="#000000" data-original="#000000" style="" class=""/>
            <path d="m10.75 21h2.5c.414 0 .75-.336.75-.75v-2.5c0-.414-.336-.75-.75-.75h-2.5c-.414 0-.75.336-.75.75v2.5c0 .414.336.75.75.75z" fill="#000000" data-original="#000000" style="" class=""/>
            <path d="m17.75 15h2.5c.414 0 .75-.336.75-.75v-2.5c0-.414-.336-.75-.75-.75h-2.5c-.414 0-.75.336-.75.75v2.5c0 .414.336.75.75.75z" fill="#000000" data-original="#000000" style="" class=""/>
            <path d="m21 3h-1v-2c0-.552-.448-1-1-1h-1c-.552 0-1 .448-1 1v2h-10v-2c0-.552-.448-1-1-1h-1c-.552 0-1 .448-1 1v2h-1c-1.654 0-3 1.346-3 3v15c0 1.654 1.346 3 3 3h18c1.654 0 3-1.346 3-3v-15c0-1.654-1.346-3-3-3zm1 18c0 .551-.449 1-1 1h-18c-.551 0-1-.449-1-1v-10.96h20z" fill="#000000" data-original="#000000" style="" class=""/>
        </g>
    </g>
</svg>
