<svg xmlns="http://www.w3.org/2000/svg" width="492" height="330.988" viewBox="0 0 492 330.988">
  <g id="已審核" transform="translate(0 -80.506)">
    <g id="Group_117" data-name="Group 117">
      <g id="Group_116" data-name="Group 116">
        <path id="Path_243" data-name="Path 243" d="M484.128,104.478,468.012,88.362a26.967,26.967,0,0,0-38.052,0L203.508,314.81,62.024,173.322a26.977,26.977,0,0,0-38.052,0L7.852,189.434a26.991,26.991,0,0,0,0,38.064L167.6,387.234a6.079,6.079,0,0,0,.7.836l16.12,15.852a26.562,26.562,0,0,0,19.084,7.572h.084a26.5,26.5,0,0,0,19.024-7.572l16.124-15.992a4.064,4.064,0,0,0,.612-.684l244.784-244.76A26.871,26.871,0,0,0,484.128,104.478Z" fill="#aaa"/>
      </g>
    </g>
  </g>
</svg>
