<svg xmlns="http://www.w3.org/2000/svg" width="512" height="360.002" viewBox="0 0 512 360.002">
  <g id="eTag" transform="translate(0 0)">
    <path id="Path_67" data-name="Path 67" d="M138.307,262a40.107,40.107,0,0,0-37.221,25.47L81.5,338.231A34.1,34.1,0,0,0,60,369.848v39.733a34.155,34.155,0,0,0,34.177,34.057v17.03a17.089,17.089,0,0,0,34.178,0V443.64H230.887v17.029a17.089,17.089,0,0,0,34.178,0V443.64a34.157,34.157,0,0,0,34.172-34.057V369.848a34.1,34.1,0,0,0-21.5-31.617L258.144,287.47A40.1,40.1,0,0,0,220.94,262ZM265.065,409.581H94.177V369.848H265.065l.022,39.733ZM226.251,299.7l13.929,36.094H119.06l13.93-36.094a5.73,5.73,0,0,1,5.317-3.64h82.626A5.732,5.732,0,0,1,226.251,299.7Z" transform="translate(-12.9 -189.847)" fill="#3bad00"/>
    <path id="Path_68" data-name="Path 68" d="M300,512H195V420.3l7.484-4.332a45,45,0,1,0-44.968.005L165,420.3V512H60A60.066,60.066,0,0,1,0,452V60A60.066,60.066,0,0,1,60,0H300a60.066,60.066,0,0,1,60,60V452A60.066,60.066,0,0,1,300,512ZM330,60a30.033,30.033,0,0,0-30-30H60A30.033,30.033,0,0,0,30,60V452a30.033,30.033,0,0,0,30,30h75V436.98a75,75,0,1,1,90,0V482h75a30.033,30.033,0,0,0,30-30Zm0,0" transform="translate(0 360.002) rotate(-90)" fill="#3bad00"/>
  </g>
</svg>
