<svg xmlns="http://www.w3.org/2000/svg" width="512" height="360" viewBox="0 0 512 360">
  <g id="eTag" transform="translate(-220 -372)">
    <path id="Path_67" data-name="Path 67" d="M138.142,262A40.026,40.026,0,0,0,101,287.506L81.453,338.338A34.152,34.152,0,0,0,60,370v39.789a34.144,34.144,0,0,0,34.105,34.105v17.053a17.053,17.053,0,1,0,34.105,0V443.895H230.526v17.053a17.053,17.053,0,1,0,34.105,0V443.895a34.144,34.144,0,0,0,34.1-34.105V370a34.152,34.152,0,0,0-21.454-31.662l-19.551-50.832A40.023,40.023,0,0,0,220.6,262Zm126.49,147.789H94.105V370H264.632l.022,39.788ZM225.9,299.749l13.9,36.146H118.935l13.9-36.146a5.718,5.718,0,0,1,5.306-3.644h82.452A5.72,5.72,0,0,1,225.9,299.749Z" transform="translate(207 182)" fill="#e4e4e4"/>
    <path id="Path_68" data-name="Path 68" d="M300,0H195V-91.7l7.484-4.332A45.188,45.188,0,0,0,225-135a45.052,45.052,0,0,0-45-45,45.052,45.052,0,0,0-45,45,45.188,45.188,0,0,0,22.516,38.973L165-91.7V0H60A60.066,60.066,0,0,1,0-60V-452a60.066,60.066,0,0,1,60-60H300a60.066,60.066,0,0,1,60,60V-60A60.066,60.066,0,0,1,300,0Zm30-452a30.033,30.033,0,0,0-30-30H60a30.033,30.033,0,0,0-30,30V-60A30.033,30.033,0,0,0,60-30h75V-75.02A75.29,75.29,0,0,1,105-135a75.084,75.084,0,0,1,75-75,75.084,75.084,0,0,1,75,75,75.29,75.29,0,0,1-30,59.98V-30h75a30.033,30.033,0,0,0,30-30Zm0,0" transform="translate(732 732) rotate(-90)" fill="#e4e4e4"/>
  </g>
</svg>
