<svg xmlns="http://www.w3.org/2000/svg" width="464.7" height="457.163" viewBox="0 0 464.7 457.163">
  <g id="export" transform="translate(0 0)">
    <path id="Path_244" data-name="Path 244" d="M212.987,113.776,0,16.15v45.5A9.653,9.653,0,0,0,5.828,70.52l207.159,90.074Z" transform="translate(0 296.55)" fill="#fff"/>
    <path id="Path_245" data-name="Path 245" d="M13,113.776v46.838L220.159,70.539a9.7,9.7,0,0,0,5.828-8.887V16.15Z" transform="translate(238.712 296.55)" fill="#fff"/>
    <path id="Path_246" data-name="Path 246" d="M146.381,271.07H97.974a24.237,24.237,0,0,1-24.2-24.2V130.692H20.524c-12.9,0-19.382-15.664-10.262-24.784L111.915,4.255a14.526,14.526,0,0,1,20.544,0L234.112,105.908c9.12,9.12,2.633,24.784-10.262,24.784H170.584V246.867A24.237,24.237,0,0,1,146.381,271.07Z" transform="translate(110.172 0)" fill="#fff"/>
    <path id="Path_247" data-name="Path 247" d="M319.481,11.063V43.728a63,63,0,0,1-62.928,62.928H208.147a63,63,0,0,1-62.928-62.928V11.063L0,77.612,232.35,184.106,464.7,77.612Z" transform="translate(0 203.14)" fill="#fff"/>
  </g>
</svg>
