<svg xmlns="http://www.w3.org/2000/svg" width="25.009" height="14.902" viewBox="0 0 25.009 14.902">
  <g id="Group_7" data-name="Group 7" transform="translate(-653.991 36.483)">
    <g id="eye" transform="translate(654 -36.483)">
      <path id="Path_24" data-name="Path 24" d="M12.5,98.725c-4.777,0-9.108,2.613-12.3,6.858a.99.99,0,0,0,0,1.181c3.2,4.25,7.528,6.863,12.3,6.863s9.108-2.613,12.3-6.858a.99.99,0,0,0,0-1.181C21.608,101.338,17.277,98.725,12.5,98.725Zm.343,12.7a5.258,5.258,0,1,1,4.9-4.9A5.261,5.261,0,0,1,12.843,111.423ZM12.684,109a2.831,2.831,0,1,1,2.644-2.644A2.827,2.827,0,0,1,12.684,109Z" transform="translate(0 -98.725)" fill="#aaa"/>
    </g>
    <line id="Line_19" data-name="Line 19" y1="13.063" x2="23.067" transform="translate(654.483 -35.533)" fill="none" stroke="#aaa" stroke-width="2"/>
  </g>
</svg>
