<svg id="import-data" xmlns="http://www.w3.org/2000/svg" width="412.717" height="406.027" viewBox="0 0 412.717 406.027">
  <path id="Path_244" data-name="Path 244" d="M109.181,240.752a12.8,12.8,0,0,1-9.114-3.783L9.785,146.686A12.908,12.908,0,0,1,18.9,124.675H66.19V21.5A21.526,21.526,0,0,1,87.686,0h42.991a21.526,21.526,0,0,1,21.5,21.5V124.675h47.29a12.908,12.908,0,0,1,9.114,22.012L118.3,236.968a12.8,12.8,0,0,1-9.114,3.783Z" transform="translate(97.177)" fill="#fff"/>
  <path id="Path_245" data-name="Path 245" d="M189.162,102.855,0,16.15V56.562a8.573,8.573,0,0,0,5.176,7.876l183.986,80Z" transform="translate(0 261.574)" fill="#fff"/>
  <path id="Path_246" data-name="Path 246" d="M13,102.855v41.6l183.986-80a8.615,8.615,0,0,0,5.176-7.893V16.15Z" transform="translate(210.555 261.574)" fill="#fff"/>
  <path id="Path_247" data-name="Path 247" d="M302.332,11.558,239.806,74.085a47.266,47.266,0,0,1-66.877,0L110.4,11.558,0,62.15l206.358,94.581L412.717,62.15Z" transform="translate(0 187.2)" fill="#fff"/>
</svg>
