<svg xmlns="http://www.w3.org/2000/svg" width="314.142" height="369.6" viewBox="0 0 314.142 369.6">
  <g id="import-csv" transform="translate(-31.36 23)">
    <path id="Path_185" data-name="Path 185" d="M325.621,127.01H317.1V85.867a6.133,6.133,0,0,0-.075-.777,6.832,6.832,0,0,0-1.65-4.507l-68.392-78.2c-.02-.022-.041-.028-.055-.049a6.752,6.752,0,0,0-1.385-1.163c-.149-.1-.3-.185-.455-.271A7.283,7.283,0,0,0,243.72.32c-.129-.034-.244-.087-.373-.122a6.984,6.984,0,0,0-1.6-.2H73.669a13.931,13.931,0,0,0-13.91,13.925V127.006H51.243a19.892,19.892,0,0,0-19.883,19.9V250.4a19.9,19.9,0,0,0,19.883,19.9h8.516v70.848a13.93,13.93,0,0,0,13.91,13.924H303.194A13.935,13.935,0,0,0,317.1,341.155V270.308h8.517a19.9,19.9,0,0,0,19.88-19.9V146.911A19.889,19.889,0,0,0,325.621,127.01ZM73.669,13.925H234.8V85.166a6.96,6.96,0,0,0,6.955,6.962h61.443V127.01H73.669ZM178.386,202.819c-17.261-6.017-28.507-15.577-28.507-30.69,0-17.747,14.79-31.324,39.292-31.324,11.714,0,20.345,2.468,26.5,5.25l-5.234,18.975a49.218,49.218,0,0,0-21.731-4.943c-10.168,0-15.1,4.63-15.1,10.028,0,6.636,5.853,9.565,19.266,14.657,18.335,6.786,26.966,16.345,26.966,31,0,17.427-13.406,32.242-41.918,32.242-11.864,0-23.581-3.093-29.435-6.327l4.775-19.439a59.8,59.8,0,0,0,26.049,6.48c10.785,0,16.49-4.474,16.49-11.266C195.8,210.985,190.866,207.286,178.386,202.819ZM56.018,196.027c0-35.477,25.279-55.221,56.708-55.221,12.177,0,21.423,2.468,25.586,4.63L133.531,164.1a50.853,50.853,0,0,0-19.726-3.846c-18.647,0-33.128,11.252-33.128,34.388,0,20.826,12.325,33.935,33.29,33.935a58.59,58.59,0,0,0,19.565-3.392l3.547,18.357c-4.316,2.163-14.022,4.481-26.66,4.481C74.512,248.02,56.018,225.643,56.018,196.027ZM303.194,337.381H73.669V270.308H303.194ZM287.657,246.47h-27.43L226.941,142.5h25.74l12.632,43.969c3.545,12.334,6.779,24.212,9.251,37.171h.459c2.619-12.5,5.852-24.837,9.4-36.715L297.675,142.5h24.972Z" transform="translate(0 -8.48)" fill="#fff"/>
    <path id="Path_234" data-name="Path 234" d="M65.689,123.5a7.91,7.91,0,0,1-5.272-1.941L8.19,75.249C3.5,71.094,6.837,63.958,13.462,63.958H40.819V11.027C40.819,4.949,46.4,0,53.254,0h24.87c6.854,0,12.435,4.949,12.435,11.027v52.93h27.357c6.625,0,9.958,7.137,5.272,11.292L70.961,121.563A7.91,7.91,0,0,1,65.689,123.5Z" transform="translate(82.219 -23)" fill="#fff"/>
  </g>
</svg>
