<svg id="parking-fee" xmlns="http://www.w3.org/2000/svg" width="512" height="512" viewBox="0 0 512 512">
  <g id="Group_117" data-name="Group 117">
    <g id="Group_116" data-name="Group 116">
      <path id="Path_243" data-name="Path 243" d="M217.46,88.7H155.82V188h61.64a49.65,49.65,0,1,0,0-99.3Z" fill="#fff"/>
    </g>
  </g>
  <g id="Group_119" data-name="Group 119">
    <g id="Group_118" data-name="Group 118">
      <path id="Path_244" data-name="Path 244" d="M0,0V402.86H213.08c-.79-4.95-1.36-9.96-1.7-15q-.375-5.655-.38-11.36c0-1.21.01-2.43.04-3.64A165.389,165.389,0,0,1,376.5,211q4.95,0,9.85.29c5.04.29,10.05.81,15,1.56q7.575,1.14,15,2.98V0ZM217.46,218H155.82V344.3h-30V58.7h91.64a79.65,79.65,0,1,1,0,159.3Z" fill="#fff"/>
    </g>
  </g>
  <g id="Group_121" data-name="Group 121">
    <g id="Group_120" data-name="Group 120">
      <path id="Path_245" data-name="Path 245" d="M511.97,373.65c-.02-.93-.05-1.85-.09-2.78-.08-1.96-.2-3.92-.37-5.86-.06-.88-.15-1.75-.24-2.61s-.18-1.69-.28-2.53c-.03-.21-.05-.42-.08-.63-.1-.78-.2-1.56-.31-2.33a.515.515,0,0,1-.02-.11c-.13-.87-.27-1.74-.41-2.61l-.03-.15c-.11-.7-.23-1.4-.37-2.1-.2-1.16-.43-2.31-.67-3.46-.17-.78-.34-1.56-.51-2.33q-.645-2.775-1.38-5.49c-.24-.86-.48-1.71-.73-2.55-.03-.11-.06-.21-.09-.31-.2-.68-.41-1.35-.62-2.02-.12-.39-.24-.78-.37-1.16-.18-.57-.37-1.13-.56-1.68-.28-.82-.56-1.64-.85-2.45-.07-.19-.14-.38-.21-.58-.26-.69-.52-1.37-.78-2.06-.28-.74-.58-1.48-.88-2.22q-.555-1.395-1.17-2.79c-.35-.81-.7-1.62-1.07-2.42q-1.11-2.445-2.32-4.83c-.37-.75-.76-1.49-1.14-2.23-.05-.08-.09-.17-.14-.25-.4-.75-.8-1.5-1.22-2.24q-2.085-3.765-4.41-7.4c-.37-.57-.74-1.14-1.12-1.71-.49-.74-.98-1.47-1.49-2.2a.908.908,0,0,0-.11-.16c-.47-.68-.94-1.35-1.42-2.01s-.95-1.31-1.43-1.96q-.975-1.3-1.98-2.58c-.47-.6-.95-1.19-1.43-1.78-.55-.67-1.1-1.34-1.66-2.01-.7-.82-1.41-1.64-2.13-2.45-.46-.52-.93-1.04-1.4-1.55-.6-.66-1.2-1.3-1.81-1.94-.03-.03-.06-.07-.09-.1-.58-.61-1.16-1.21-1.75-1.8-.52-.54-1.05-1.06-1.59-1.58-.22-.22-.44-.44-.67-.65-1.14-1.11-2.31-2.2-3.49-3.25-.63-.57-1.27-1.13-1.91-1.69-.04-.04-.09-.08-.15-.13-1.18-1.02-2.37-2.01-3.59-3l-.6-.48c-.63-.5-1.26-.99-1.9-1.48-.02-.02-.04-.03-.06-.05-.68-.52-1.37-1.04-2.06-1.55-.71-.52-1.43-1.04-2.15-1.55-1.45-1.03-2.91-2.02-4.4-2.98-.7-.46-1.4-.91-2.11-1.35-.05-.03-.09-.06-.13-.08-.76-.47-1.52-.93-2.28-1.39s-1.53-.9-2.3-1.34c-.8-.46-1.61-.91-2.42-1.35-.76-.4-1.51-.81-2.27-1.2-.86-.44-1.72-.88-2.59-1.31-.73-.36-1.47-.71-2.21-1.06-.07-.03-.13-.06-.19-.09q-1.125-.525-2.25-1.02c-.76-.34-1.51-.66-2.27-.99a1.668,1.668,0,0,1-.2-.08q-1.245-.525-2.49-1.02c-.83-.33-1.67-.66-2.51-.97q-2.49-.945-5.03-1.77l-.63-.21c-.67-.22-1.35-.43-2.03-.64-.61-.19-1.22-.37-1.84-.55s-1.23-.36-1.85-.53c-.47-.13-.95-.26-1.43-.39-1.38-.36-2.78-.71-4.18-1.03q-.945-.225-1.89-.42c-1-.22-2-.42-3.01-.61l-.8-.15c-.02,0-.05-.01-.07-.01-.59-.11-1.18-.22-1.78-.32q-5.55-.96-11.25-1.44c-.63-.06-1.27-.11-1.9-.15l-2.23-.15q-1.335-.075-2.67-.12-1.125-.045-2.25-.06-1.35-.03-2.7-.03-3.765,0-7.49.21c-.69.03-1.39.07-2.08.13-.79.05-1.58.11-2.38.18l-1.9.18c-.86.09-1.72.18-2.58.29q-5.295.63-10.44,1.68c-.46.09-.92.18-1.38.28q-3.375.72-6.67,1.6c-.54.14-1.06.28-1.59.43-.5.14-1,.28-1.49.42q-3.21.945-6.33,2.02c-1.55.53-3.08,1.1-4.6,1.69s-3.02,1.2-4.51,1.84c-.5.21-.99.43-1.49.65s-.98.44-1.47.67-.98.45-1.47.68c-1.47.69-2.91,1.41-4.34,2.15-.48.25-.96.5-1.43.75-1.48.78-2.93,1.59-4.37,2.43-.41.24-.83.49-1.24.74-.81.47-1.61.96-2.4,1.46-.37.23-.74.46-1.11.7-.65.41-1.3.83-1.94,1.26-.44.29-.89.59-1.33.89a134.846,134.846,0,0,0-12.69,9.76c-.8.69-1.59,1.39-2.38,2.11-.4.36-.8.73-1.2,1.1q-1.785,1.665-3.51,3.39c-1.54,1.53-3.03,3.1-4.49,4.71-.37.4-.73.8-1.08,1.21s-.72.81-1.07,1.22-.71.82-1.06,1.23c-.38.44-.75.89-1.13,1.35-.32.38-.63.77-.94,1.16-.35.43-.69.85-1.02,1.28s-.67.85-.99,1.28c-.34.43-.67.86-.99,1.3-.65.87-1.29,1.75-1.93,2.64-.53.74-1.05,1.49-1.56,2.24-.1.15-.19.29-.29.43-.6.9-1.2,1.81-1.79,2.73q-.45.69-.87,1.38c-.88,1.4-1.73,2.81-2.55,4.25q-.4.69-.78,1.38c-.27.48-.53.95-.79,1.43-.28.51-.55,1.02-.82,1.53-.24.45-.48.91-.71,1.37q-2.25,4.395-4.18,8.95c-.22.51-.43,1.01-.63,1.52s-.42,1.02-.62,1.54-.41,1.02-.6,1.54q-.885,2.325-1.68,4.68c-.35,1.05-.7,2.11-1.03,3.17q-.255.795-.48,1.59c-.12.39-.23.77-.34,1.16-.2.69-.4,1.38-.58,2.07-.29,1.07-.57,2.15-.83,3.23-.42,1.71-.81,3.44-1.16,5.17-.21,1.02-.4,2.05-.58,3.08-.11.56-.2,1.12-.29,1.68a.414.414,0,0,0-.03.16c-.17,1.06-.34,2.13-.49,3.2-.15,1.13-.3,2.26-.43,3.39a.109.109,0,0,0-.01.05q-.375,3.36-.6,6.75v.06c-.07,1.11-.12,2.23-.17,3.35-.03.57-.04,1.14-.06,1.71-.02,1.21-.04,2.42-.04,3.64,0,.96.01,1.91.03,2.86.02.8.04,1.59.07,2.38.01.24.02.49.03.73.08,1.81.2,3.61.35,5.39.05.64.11,1.27.17,1.9s.12,1.27.19,1.9l.15,1.32c.1.82.21,1.65.32,2.47.09.62.18,1.23.28,1.85.1.64.2,1.29.31,1.93.1.6.21,1.19.32,1.78.11.62.23,1.24.35,1.85.38,1.95.8,3.87,1.27,5.79a.292.292,0,0,1,.02.09c.23.92.47,1.84.71,2.76.25.95.52,1.9.79,2.84q1.635,5.64,3.74,11.07c.3.77.61,1.54.92,2.31.07.18.14.35.22.52.72,1.74,1.47,3.47,2.27,5.18.4.88.82,1.75,1.24,2.61s.86,1.73,1.3,2.58c.43.83.87,1.66,1.31,2.48.01.02.03.05.04.07.46.84.93,1.68,1.4,2.51s.96,1.66,1.46,2.49c.4.66.81,1.33,1.22,1.99.15.24.3.48.45.71.43.68.87,1.36,1.31,2.04.03.04.05.08.08.12.41.63.83,1.25,1.25,1.87.17.24.33.48.5.71.12.18.24.35.37.53.37.54.75,1.08,1.14,1.61.56.77,1.12,1.54,1.7,2.3.53.71,1.07,1.42,1.62,2.11q1.635,2.085,3.34,4.08c.26.31.53.63.81.94,1.46,1.69,2.96,3.35,4.52,4.96.59.63,1.2,1.26,1.81,1.87l.48.48c.33.32.66.65.99.97.63.62,1.27,1.23,1.91,1.84.54.51,1.09,1.01,1.64,1.51.4.37.81.73,1.21,1.08.67.61,1.36,1.2,2.05,1.78.96.83,1.93,1.63,2.91,2.42.42.34.84.67,1.26,1s.86.68,1.3,1.01c.31.24.63.48.94.72.55.41,1.11.83,1.67,1.24.66.48,1.33.96,2,1.42.3.21.59.42.89.62.54.38,1.09.75,1.64,1.12q4.53,3.03,9.31,5.69c.4.23.81.46,1.21.68q2.52,1.365,5.11,2.64c.59.29,1.18.58,1.78.85,1,.48,2.01.94,3.02,1.39.68.3,1.37.6,2.06.89,1.13.48,2.27.94,3.42,1.39.74.29,1.48.58,2.23.85.17.06.33.12.5.19.84.3,1.68.6,2.53.89.72.25,1.45.5,2.18.73.01.01.03.01.05.02.36.12.73.23,1.1.35.9.28,1.82.56,2.74.83q1.17.345,2.34.66c.97.27,1.96.52,2.95.76.92.24,1.85.45,2.78.66.96.22,1.93.43,2.9.62.93.19,1.87.37,2.81.54,1.18.22,2.37.41,3.57.6.79.12,1.58.23,2.38.34,1.7.23,3.41.43,5.14.59l.98.09c.98.09,1.97.17,2.96.23.96.07,1.91.12,2.87.16.11.01.22.02.33.02.83.04,1.65.06,2.48.09.27,0,.54.01.8.01q1.35.03,2.7.03A135.506,135.506,0,0,0,512,376.5Q512,375.075,511.97,373.65ZM391.75,445.89v25.88h-30V449.08H346.3v-30h29.14a13.412,13.412,0,0,0,13.39-13.4,13.1,13.1,0,0,0-.3-2.82,13.412,13.412,0,0,0-13.09-10.57,41.058,41.058,0,0,1-18.59-4.43,41.612,41.612,0,0,1-16.41-15,41.041,41.041,0,0,1-6.27-21.85v-3.9a41.323,41.323,0,0,1,27.58-38.93V281.76h30v24.08H406.7v30H375.44a11.275,11.275,0,0,0-11.27,11.27v3.9a11.284,11.284,0,0,0,11.27,11.28,43.391,43.391,0,0,1,16.31,83.6Z" fill="#fff"/>
    </g>
  </g>
</svg>
