<svg xmlns="http://www.w3.org/2000/svg" width="484.133" height="443" viewBox="0 0 484.133 443">
  <g id="Group_122" data-name="Group 122" transform="translate(-1811 -1538)">
    <path id="Path_246" data-name="Path 246" d="M359.586,29.252H263.479A49.637,49.637,0,0,0,243.1,33.388C226.7,40.781,217.022,55.936,217.076,72c0,.006.241,70.389.241,91.252h-.241V364.4c0,17.293,15.045,31.31,33.6,31.31h24.262c18.559,0,33.6-14.018,33.6-31.31V297.424c18.892-.089,39.208-.168,51.041-.168,80.359,0,145.735-60.113,145.735-134S439.945,29.252,359.586,29.252Zm0,182.776c-11.8,0-31.847.078-50.617.165-.1-18.141-.183-37.676-.183-48.941,0-9.638-.05-29.814-.106-48.775h50.906c29.416,0,54.268,22.336,54.268,48.775S389,212.029,359.586,212.029Z" transform="translate(1782.291 1516.271)" fill="#fff"/>
    <path id="Path_247" data-name="Path 247" d="M52.358,285.081H215.864a44.857,44.857,0,0,1,44.858,44.858V438.455a44.857,44.857,0,0,1-44.858,44.858H52.358A44.857,44.857,0,0,1,7.5,438.455V329.939a44.857,44.857,0,0,1,44.858-44.858Z" transform="translate(1811.021 1490.164)" fill="#ffe07d"/>
    <path id="Path_248" data-name="Path 248" d="M77.369,483.306H52.358A44.856,44.856,0,0,1,7.5,438.448V329.939a44.856,44.856,0,0,1,44.858-44.858H77.369a44.856,44.856,0,0,0-44.858,44.858V438.448A44.856,44.856,0,0,0,77.369,483.306Z" transform="translate(1811.021 1490.164)" fill="#ffd064"/>
    <path id="Path_249" data-name="Path 249" d="M359.347,112.959H308.441a7.521,7.521,0,0,0-7.521,7.539c.05,20.341.1,41.985.1,52.331,0,10.17.064,27.852.191,52.558a7.52,7.52,0,0,0,7.52,7.482h.037c23.536-.113,40.552-.17,50.578-.17A62,62,0,0,0,395.4,221.122a7.521,7.521,0,1,0-8.707-12.266,47.039,47.039,0,0,1-27.348,8.8c-8.946,0-23.435.045-43.131.135-.1-20.775-.153-35.88-.153-44.962s-.038-26.86-.081-44.828h43.364c25.338,0,46.743,20.529,46.743,44.828a41.56,41.56,0,0,1-3.259,16.094,7.521,7.521,0,1,0,13.879,5.8,56.49,56.49,0,0,0,4.423-21.894C421.133,140.377,392.838,112.959,359.347,112.959Z" transform="translate(1789.353 1509.495)" fill="none"/>
    <path id="Path_250" data-name="Path 250" d="M339.632,21.751H249.017a50.667,50.667,0,0,0-22.3,4.9A50,50,0,0,0,198.174,72.1v.112c.022,7.12,0,191.441,0,191.441H49.387A49.443,49.443,0,0,0,0,313.043V415.363a49.443,49.443,0,0,0,49.387,49.387h9.4a7.092,7.092,0,0,0,0-14.184h-9.4a35.243,35.243,0,0,1-35.2-35.2V313.043a35.243,35.243,0,0,1,35.2-35.2H203.554a35.243,35.243,0,0,1,35.2,35.2V415.363a35.243,35.243,0,0,1-35.2,35.2H87.154a7.092,7.092,0,0,0,0,14.184h116.4a49.443,49.443,0,0,0,49.387-49.387v-8.6h6.884a38.817,38.817,0,0,0,38.769-38.778V307.271c16.059-.075,31.463-.137,41.037-.137,79.68,0,144.5-64.01,144.5-142.687s-64.823-142.7-144.5-142.7Zm0,271.2c-11,0-29.648.081-48.164.17a7.092,7.092,0,0,0-7.058,7.092v67.769a24.618,24.618,0,0,1-24.585,24.594h-6.884V313.044a49.457,49.457,0,0,0-40.584-48.586s.024-184.961,0-192.38A35.931,35.931,0,0,1,232.9,39.413a36.626,36.626,0,0,1,16.119-3.478h90.614c71.858,0,130.319,57.651,130.319,128.513S411.49,292.951,339.632,292.951Z" transform="translate(1811 1516.249)" fill="none"/>
    <path id="Path_251" data-name="Path 251" d="M64.488,341.812H36.149a7.522,7.522,0,0,0-7.521,7.521v69.917a7.521,7.521,0,1,0,15.043,0v-28.1H62.237a7.521,7.521,0,1,0,0-15.043H43.671V356.854H64.487a7.521,7.521,0,0,0,0-15.042Z" transform="translate(1811.082 1490.327)"/>
    <path id="Path_252" data-name="Path 252" d="M179.846,356.982a7.521,7.521,0,0,0,0-15.043H150.44a7.522,7.522,0,0,0-7.522,7.522v69.79a7.522,7.522,0,0,0,7.522,7.521h29.407a7.521,7.521,0,1,0,0-15.043H157.961V391.877h19.717a7.521,7.521,0,1,0,0-15.042H157.961V356.982Z" transform="translate(1802.446 1490.327)"/>
    <path id="Path_253" data-name="Path 253" d="M231.477,356.982a7.521,7.521,0,1,0,0-15.043H202.07a7.522,7.522,0,0,0-7.521,7.522v69.79a7.522,7.522,0,0,0,7.521,7.521h29.407a7.521,7.521,0,1,0,0-15.043H209.592V391.877h19.717a7.521,7.521,0,1,0,0-15.042H209.592V356.982Z" transform="translate(1799.355 1490.327)"/>
    <path id="Path_254" data-name="Path 254" d="M97.5,419.253V395.915l24.913,28.307a7.521,7.521,0,0,0,11.292-9.938L114.41,392.363c12.086-2.518,21.169-12.875,21.169-25.238,0-14.241-12.05-25.826-26.863-25.826H90a7.523,7.523,0,0,0-7.521,7.547l-.023,70.409a7.521,7.521,0,1,0,15.043,0Zm11.218-62.912c6.407,0,11.82,4.938,11.82,10.783s-5.412,10.783-11.82,10.783c-2.569,0-7.138.02-11.108.04-.021-3.89-.052-17.536-.064-21.606Z" transform="translate(1805.968 1490.325)"/>
  </g>
</svg>
