<svg id="parking2" xmlns="http://www.w3.org/2000/svg" width="487" height="487" viewBox="0 0 487 487">
  <path id="Path_19" data-name="Path 19" d="M157.941,181.628H0v89.926H218.258Z" transform="translate(0 -8.869)" fill="#5998c0"/>
  <path id="Path_20" data-name="Path 20" d="M174.22,333.377a98.092,98.092,0,0,1,97.415,109.477h65.807v-54.6H293.374V359.721h44.069v-13.6a39.949,39.949,0,0,0-39.949-39.949H0V442.855H76.805A98.093,98.093,0,0,1,174.22,333.377Z" transform="translate(0 -14.95)" fill="#5998c0"/>
  <path id="Path_21" data-name="Path 21" d="M415.023,224.469H386.488V469.425H230.828a70.494,70.494,0,1,0-113.216,0H0V497.96H487V469.425H415.023Z" transform="translate(0 -10.96)" fill="#5998c0"/>
  <path id="Path_22" data-name="Path 22" d="M422.539,62.677H409.681V89.166c4.836-.024,9.79-.043,12.858-.043,7.46,0,13.762-6.055,13.762-13.222S430,62.677,422.539,62.677Z" transform="translate(-20.004 -3.06)" fill="#5998c0"/>
  <path id="Path_23" data-name="Path 23" d="M316.531,0V185.925H502.456V0Zm101.46,114.6c-3.015,0-8,.02-12.858.044v38.5H376.6V31.081h41.393c23.323,0,42.3,18.732,42.3,41.758S441.313,114.6,417.991,114.6Z" transform="translate(-15.456)" fill="#5998c0"/>
</svg>
