<?xml version="1.0"?>
<svg xmlns="http://www.w3.org/2000/svg" xmlns:xlink="http://www.w3.org/1999/xlink" xmlns:svgjs="http://svgjs.com/svgjs" version="1.1" width="512" height="512" x="0" y="0" viewBox="0 0 512 512" style="enable-background:new 0 0 512 512" xml:space="preserve" class=""><g>
<path xmlns="http://www.w3.org/2000/svg" style="" d="M256,0l-30,43.136v164.491l30,35.05l51.363-12.766l146.849-60.073l14.985-55.988  C423.441,45.287,344.434,0,256,0z" fill="#fdb75d" data-original="#f40f78" class=""/>
<path xmlns="http://www.w3.org/2000/svg" style="" d="M469.197,113.849L256,242.677l21.363,47.234l132.011,103.454l51.674,13.926  C492.893,364.733,512,312.122,512,255C512,202.817,495.501,153.266,469.197,113.849z" fill="#24c9cb" data-original="#ffcc33" class=""/>
<path xmlns="http://www.w3.org/2000/svg" style="" d="M461,407.399c-6,7.8-12.299,15.601-19.2,22.8C395.3,479.099,328.599,512,256,512  C115.3,512,0,395.7,0,255S115.3,0,256,0v242.699L461,407.399z" fill="#f55874" data-original="#17ace8" class=""/>
<path xmlns="http://www.w3.org/2000/svg" style="" d="M461,407.399c-6,7.8-12.299,15.601-19.2,22.8C395.3,479.099,328.599,512,256,512V242.699L461,407.399  z" fill="#23b0fc" data-original="#1689fc" class=""/>
<g xmlns="http://www.w3.org/2000/svg">
</g>
<g xmlns="http://www.w3.org/2000/svg">
</g>
<g xmlns="http://www.w3.org/2000/svg">
</g>
<g xmlns="http://www.w3.org/2000/svg">
</g>
<g xmlns="http://www.w3.org/2000/svg">
</g>
<g xmlns="http://www.w3.org/2000/svg">
</g>
<g xmlns="http://www.w3.org/2000/svg">
</g>
<g xmlns="http://www.w3.org/2000/svg">
</g>
<g xmlns="http://www.w3.org/2000/svg">
</g>
<g xmlns="http://www.w3.org/2000/svg">
</g>
<g xmlns="http://www.w3.org/2000/svg">
</g>
<g xmlns="http://www.w3.org/2000/svg">
</g>
<g xmlns="http://www.w3.org/2000/svg">
</g>
<g xmlns="http://www.w3.org/2000/svg">
</g>
<g xmlns="http://www.w3.org/2000/svg">
</g>
</g></svg>
