<svg id="power-off" xmlns="http://www.w3.org/2000/svg" width="369.765" height="388.6" viewBox="0 0 369.765 388.6">
  <path id="Path_243" data-name="Path 243" d="M249.583,2.357v49.3a139.636,139.636,0,1,1-138.743,6.227V6.637A184.887,184.887,0,0,0,.731,175.675c0,102.117,82.766,184.9,184.87,184.9a184.869,184.869,0,0,0,184.9-184.9C370.483,96.042,320.063,28.424,249.583,2.357Z" transform="translate(-0.731 28.029)" fill="#fff"/>
  <path id="Path_244" data-name="Path 244" d="M35.392,227.567c20.318,0,22.38-12,22.38-26.764V26.815C57.772,12.015,55.709,0,35.392,0,15.152,0,13.063,12.015,13.063,26.815V200.8C13.05,215.578,15.152,227.567,35.392,227.567Z" transform="translate(145.92)" fill="#fff"/>
</svg>
