<svg xmlns="http://www.w3.org/2000/svg" width="427.97" height="428" viewBox="0 0 427.97 428">
  <g id="Group_116" data-name="Group 116" transform="translate(-1651.206 -1530)">
    <circle id="Ellipse_132" data-name="Ellipse 132" cx="90" cy="90" r="90" transform="translate(1775 1654)" fill="#4370ff"/>
    <path id="Path_245" data-name="Path 245" d="M428.97,215.005A213.985,213.985,0,1,0,292.51,414.446L282.5,388.719a186.443,186.443,0,1,1,74.032-52.461V315.136H328.922v69.027h69.027V356.553H375.4A213.294,213.294,0,0,0,428.97,215.005Z" transform="translate(1650.206 1529.004)" fill="#fff"/>
    <path id="Path_246" data-name="Path 246" d="M119.662,196.474A76.013,76.013,0,0,1,45.05,134.349h-27.9a103.541,103.541,0,1,0,0-27.611h27.9a75.93,75.93,0,1,1,74.612,89.736Z" transform="translate(1745.53 1623.465)" fill="#fff"/>
  </g>
</svg>
