<svg id="restart" xmlns="http://www.w3.org/2000/svg" width="399.979" height="400.3" viewBox="0 0 399.979 400.3">
  <path id="Path_245" data-name="Path 245" d="M388.291,200.167a12.691,12.691,0,0,0-13.31,11.659c-6.1,91.652-82.912,163.456-174.831,163.456-96.572,0-175.131-78.559-175.131-175.131S103.578,25.019,200.15,25.019A173.084,173.084,0,0,1,314.619,67.984L303.894,78.726a12.506,12.506,0,0,0,8.84,21.349h41.7a12.514,12.514,0,0,0,12.509-12.509v-41.7a12.515,12.515,0,0,0-21.349-8.84L332.316,50.3A197.774,197.774,0,0,0,200.15,0C89.784,0,0,89.784,0,200.15S89.784,400.3,200.15,400.3c105.062,0,192.828-82.062,199.8-186.807A12.534,12.534,0,0,0,388.291,200.167Z" fill="#fff"/>
  <path id="Path_246" data-name="Path 246" d="M180.131,238.381H63.377a25.049,25.049,0,0,1-25.019-25.019V154.985H21.679A16.6,16.6,0,0,1,9.287,127.248L115.516,7.675a8.62,8.62,0,0,1,12.476,0l27.12,30.49V29.891a8.343,8.343,0,0,1,8.34-8.34H196.81a8.343,8.343,0,0,1,8.34,8.34v64.7l29.072,32.658a16.6,16.6,0,0,1-12.393,27.737H205.15v58.377A25.049,25.049,0,0,1,180.131,238.381Z" transform="translate(78.396 78.457)" fill="#fff"/>
  <path id="Path_247" data-name="Path 247" d="M200.15,0C89.784,0,0,89.784,0,200.15S89.784,400.3,200.15,400.3V375.281c-96.572,0-175.131-78.559-175.131-175.131S103.578,25.019,200.15,25.019Z" fill="#fff"/>
  <path id="Path_248" data-name="Path 248" d="M121.738,5a8.253,8.253,0,0,0-6.221,2.669L9.287,127.246a16.6,16.6,0,0,0,12.393,27.737H38.358V213.36a25.049,25.049,0,0,0,25.019,25.019h58.377Z" transform="translate(78.396 78.459)" fill="#fff"/>
</svg>
