<svg xmlns="http://www.w3.org/2000/svg" width="511.999" height="482.962" viewBox="0 0 511.999 482.962">
  <g id="warning" transform="translate(-0.001 -14.519)">
    <g id="Group_127" data-name="Group 127">
      <g id="Group_126" data-name="Group 126">
        <path id="Path_271" data-name="Path 271" d="M501.609,384.6,320.543,51.265a75.09,75.09,0,0,0-129.124,0c-.1.176-.19.352-.293.528L10.662,384.076a75.058,75.058,0,0,0,64.547,113.4H435.753c27.347,0,52.733-14.179,66.267-37.948C515.524,435.779,515.261,407.566,501.609,384.6ZM225.951,167.148a30.03,30.03,0,0,1,60.06,0V287.269a30.03,30.03,0,1,1-60.06,0V167.148Zm30.03,270.273a45.045,45.045,0,1,1,45.045-45.046A45.1,45.1,0,0,1,255.981,437.421Z" fill="#f22"/>
      </g>
    </g>
  </g>
</svg>
