<?xml version="1.0" encoding="utf-8"?>
<!-- Generator: Adobe Illustrator 24.3.0, SVG Export Plug-In . SVG Version: 6.00 Build 0)  -->
<svg version="1.1" id="圖層_1" xmlns:svgjs="http://svgjs.com/svgjs"
	 xmlns="http://www.w3.org/2000/svg" xmlns:xlink="http://www.w3.org/1999/xlink" x="0px" y="0px" viewBox="0 0 512 512"
	 style="enable-background:new 0 0 512 512;" xml:space="preserve">
<style type="text/css">
	.st0{fill:#999999;}
	.st1{fill:#FF0003;}
</style>
<g>
	<g>
		<g>
			<path class="st0" d="M416.4,143c-5.5-32.5-21.6-62.2-46.2-84.8c-27.4-25.1-63-38.9-100-38.9c-28.6,0-56.5,8.2-80.4,23.7
				c-19.9,12.8-36.4,30.2-48.1,50.6c-5.1-0.9-10.3-1.5-15.6-1.5c-44.7,0-81.2,36.4-81.2,81.2c0,5.8,0.6,11.4,1.7,16.8
				c-29,21.1-46.5,55-46.5,91.1c0,29.2,10.8,57.5,30.6,79.9c20.3,23,47.2,36.5,75.8,38.1c0.3,0,0.5,0,0.8,0h90.5
				c7.9,0,14.2-6.3,14.2-14.2s-6.3-14.2-14.2-14.2h-90.1c-43.1-2.6-79.3-43.6-79.3-89.7c0-29.8,16-57.6,41.8-72.6
				c6-3.5,8.5-10.7,6.2-17.3c-2.1-5.7-3.2-11.7-3.2-18.1c0-29.1,23.7-52.7,52.7-52.7c6.2,0,12.3,1.1,18,3.2
				c6.9,2.5,14.6-0.6,17.8-7.3c19.7-41.8,62.2-68.8,108.4-68.8c62.1,0,113.4,46.5,119.3,108.2c0.6,6.4,5.5,11.6,11.8,12.6
				c46.9,8,82.2,51.3,82.2,100.7c0,52.3-41.2,97.8-91.9,101.7h-77.6c-7.9,0-14.2,6.3-14.2,14.2s6.3,14.2,14.2,14.2h78.1
				c0.3,0,0.6,0,1.1,0c32.1-2.3,62.1-17.1,84.4-41.7c22.2-24.4,34.3-55.8,34.3-88.4C511.9,210,471.6,157.5,416.4,143z"/>
			<path class="st0" d="M341.3,294.8c5.6-5.6,5.6-14.5,0-20.1l-75.3-75.3c-2.6-2.6-6.3-4.2-10-4.2s-7.4,1.5-10,4.2l-75.3,75.3
				c-5.6,5.6-5.6,14.5,0,20.1c2.7,2.7,6.4,4.2,10,4.2s7.3-1.4,10-4.2l51.1-51.1v234.7c0,7.9,6.3,14.2,14.2,14.2s14.2-6.3,14.2-14.2
				V243.7l51.1,51.1C326.8,300.4,335.8,300.4,341.3,294.8z"/>
		</g>
	</g>
</g>
<rect x="-72.3" y="243" transform="matrix(0.7071 0.7071 -0.7071 0.7071 254.1694 -101.6193)" class="st1" width="644.2" height="26"/>
</svg>
