<svg xmlns="http://www.w3.org/2000/svg" width="512" height="511.999" viewBox="0 0 512 511.999">
  <g id="修改" transform="translate(0.001 -0.001)">
    <path id="Path_28" data-name="Path 28" d="M422.751,4.4a14.993,14.993,0,0,0-21.215,0L348.5,57.431,454.571,163.5,507.6,110.464a14.994,14.994,0,0,0,0-21.213Z" fill="#666"/>
    <path id="Path_29" data-name="Path 29" d="M57.426,348.507,163.494,454.573,433.358,184.711,327.291,78.643ZM359.111,152.891a14.99,14.99,0,0,1,0,21.213L152.886,380.328a15,15,0,1,1-21.213-21.213L337.9,152.891a14.99,14.99,0,0,1,21.213,0Z" fill="#666"/>
    <path id="Path_30" data-name="Path 30" d="M40.263,373.771.767,492.256a15,15,0,0,0,18.977,18.975L138.23,471.737Z" fill="#666"/>
  </g>
</svg>
