<svg xmlns="http://www.w3.org/2000/svg" width="512" height="467.479" viewBox="0 0 512 467.479">
  <g id="修改密碼2" transform="translate(0 -22.26)">
    <g id="Group_53" data-name="Group 53">
      <g id="Group_52" data-name="Group 52">
        <path id="Path_148" data-name="Path 148" d="M461.913,289.391H50.087A50.143,50.143,0,0,0,0,339.478V439.652a50.143,50.143,0,0,0,50.087,50.087H461.913A50.143,50.143,0,0,0,512,439.652V339.478A50.143,50.143,0,0,0,461.913,289.391ZM157.847,401.369a16.694,16.694,0,1,1-23.608,23.609l-11.805-11.8-11.8,11.8a16.694,16.694,0,0,1-23.608-23.609l11.8-11.8-11.8-11.8a16.694,16.694,0,0,1,23.609-23.609l11.8,11.8,11.8-11.8a16.694,16.694,0,0,1,23.609,23.609l-11.8,11.8Zm133.566,0a16.694,16.694,0,1,1-23.608,23.609L256,413.174l-11.8,11.8a16.694,16.694,0,0,1-23.608-23.609l11.8-11.8-11.8-11.8A16.694,16.694,0,0,1,244.2,354.152l11.8,11.8,11.8-11.8a16.694,16.694,0,0,1,23.609,23.609l-11.8,11.8Zm133.565,0a16.694,16.694,0,1,1-23.608,23.609l-11.8-11.8-11.8,11.8a16.694,16.694,0,1,1-23.608-23.609l11.8-11.8-11.8-11.8a16.694,16.694,0,0,1,23.609-23.609l11.8,11.8,11.8-11.8a16.694,16.694,0,0,1,23.609,23.609l-11.8,11.8Z" fill="#e4eaf8"/>
      </g>
    </g>
    <g id="Group_55" data-name="Group 55">
      <g id="Group_54" data-name="Group 54">
        <path id="Path_149" data-name="Path 149" d="M339.478,122.435h-16.7V89.043a66.783,66.783,0,1,0-133.566,0v33.391h-16.7a16.7,16.7,0,0,0-16.7,16.7V239.3a16.7,16.7,0,0,0,16.7,16.7H339.477a16.7,16.7,0,0,0,16.7-16.7V139.13A16.7,16.7,0,0,0,339.478,122.435Zm-50.087,0H222.608V89.043a33.391,33.391,0,1,1,66.782,0v33.392Z" fill="#e4eaf8"/>
      </g>
    </g>
  </g>
</svg>
