<?xml version="1.0" encoding="UTF-8" standalone="no"?>
<svg xmlns:dc="http://purl.org/dc/elements/1.1/"
  xmlns:cc="http://creativecommons.org/ns#"
  xmlns:rdf="http://www.w3.org/1999/02/22-rdf-syntax-ns#"
  xmlns:svg="http://www.w3.org/2000/svg"
  xmlns="http://www.w3.org/2000/svg"
  xmlns:sodipodi="http://sodipodi.sourceforge.net/DTD/sodipodi-0.dtd"
  xmlns:inkscape="http://www.inkscape.org/namespaces/inkscape" version="1.1" width="512" height="512" x="0" y="0" viewBox="0 0 407 407" style="enable-background:new 0 0 512 512" xml:space="preserve" class="" id="svg10" sodipodi:docname="刪除-紅.svg" inkscape:version="1.0.1 (3bc2e813f5, 2020-09-07)">
  <g id="g8" transform="scale(1.3127348,1)">
    <path d="m 89.199219,37 c 0,-12.132812 9.46875,-21 21.601561,-21 h 88.80078 c 12.12891,0 21.59766,8.867188 21.59766,21 v 23 h 16 V 37 c 0,-20.953125 -16.64453,-37 -37.59766,-37 H 110.80078 C 89.847656,0 73.199219,16.046875 73.199219,37 v 23 h 16 z m 0,0" fill="#ff5555" data-original="#000000" class="" id="path2" />
    <path d="M 60.601562,407 H 249.80078 c 18.24219,0 32.39844,-16.04688 32.39844,-36 V 124 H 28.199219 v 247 c 0,19.95312 14.15625,36 32.402343,36 z M 206.19922,162.19922 c 0,-4.41797 3.58203,-8 8,-8 4.41797,0 8,3.58203 8,8 v 189 c 0,4.41797 -3.58203,8 -8,8 -4.41797,0 -8,-3.58203 -8,-8 z m -59,0 c 0,-4.41797 3.58203,-8 8,-8 4.41797,0 8,3.58203 8,8 v 189 c 0,4.41797 -3.58203,8 -8,8 -4.41797,0 -8,-3.58203 -8,-8 z m -59.000001,0 c 0,-4.41797 3.582031,-8 8,-8 4.417971,0 8.000001,3.58203 8.000001,8 v 189 c 0,4.41797 -3.58203,8 -8.000001,8 -4.417969,0 -8,-3.58203 -8,-8 z m 0,0" fill="#ff5555" data-original="#000000" class="" id="path4" />
    <path d="m 20,108 h 270.39844 c 11.04687,0 20,-8.953125 20,-20 0,-11.046875 -8.95313,-20 -20,-20 H 20 C 8.953125,68 0,76.953125 0,88 c 0,11.046875 8.953125,20 20,20 z m 0,0" fill="#ff5555" data-original="#000000" class="" id="path6" />
  </g>
</svg>
