<svg id="Capa_1" enable-background="new 0 0 512 512" height="512" viewBox="0 0 512 512" width="512" xmlns="http://www.w3.org/2000/svg"><g><path d="m512 256c0 129.89-96.75 237.19-222.11 253.77-11.09 1.47-18.492-21.28-29.982-21.28-2.18 0-14.772-5.175-16.932-5.234-9.26-.22-11.877 27.704-20.867 26.514-125.359-16.58-222.109-123.88-222.109-253.77 0-141.38 114.62-256 256-256s256 114.62 256 256z" fill="#ef3d54"/><path d="m289.89 373.14v136.63c-11.09 1.47-22.4 2.23-33.89 2.23s-22.8-.76-33.89-2.23v-136.63z" fill="#e8eeff"/><path d="m249.49 373.14v138.77c-9.26-.22-18.39-.95-27.38-2.14v-136.63z" fill="#d2dbf9"/><path d="m389.399 417.932c-88.932 6.522-177.865 6.522-266.797 0-38.92-2.854-69.95-33.885-72.805-72.805-6.522-88.932-6.522-177.865 0-266.797 2.854-38.92 33.885-69.95 72.805-72.805 88.772-6.51 177.544-6.522 266.316-.035 39.285 2.871 70.45 34.036 73.32 73.32 6.487 88.772 6.475 177.545-.035 266.317-2.854 38.921-33.884 69.951-72.804 72.805z" fill="#51aaf7"/><path d="m111.105 416.23c-33.39-7.48-58.74-36.1-61.31-71.1-6.52-88.93-6.52-177.87 0-266.8 2.57-34.98 27.9-63.59 61.27-71.09-26.67 11.74-45.76 37.479-47.99 67.94-6.68 91.03-6.68 182.07 0 273.1 2.23 30.47 21.34 56.22 48.03 67.95z" fill="#378ae5"/><g fill="#e8eeff"><path d="m256 402.824c-43.772 0-88.162-1.627-131.936-4.838-28.853-2.116-52.206-25.469-54.321-54.321-6.42-87.546-6.42-176.325 0-263.872 2.116-28.853 25.469-52.206 54.321-54.321 43.773-3.21 88.163-4.838 131.936-4.838 43.616 0 87.846 1.616 131.461 4.803 29.607 2.163 52.667 25.223 54.831 54.832 6.386 87.387 6.374 176.007-.035 263.396-2.116 28.852-25.469 52.205-54.321 54.321-43.774 3.211-88.164 4.838-131.936 4.838zm0-362.19c-43.287 0-87.184 1.61-130.473 4.784-19.035 1.396-34.442 16.803-35.838 35.838-6.349 86.575-6.349 174.37 0 260.946 1.396 19.035 16.803 34.441 35.838 35.838 43.289 3.174 87.186 4.784 130.473 4.784s87.184-1.61 130.473-4.784c19.035-1.396 34.442-16.803 35.838-35.838 6.337-86.421 6.349-174.058.034-260.476-1.434-19.625-16.718-34.909-36.341-36.342-43.133-3.152-86.872-4.75-130.004-4.75z"/><path d="m338.786 104.309c-19.43-18.917-44.974-29.336-71.927-29.336h-100.438l.107 273.512h67v-70.934c12.485-.062 25.56-.116 33.33-.116 26.953 0 52.497-10.418 71.927-29.336 19.753-19.232 30.631-44.766 30.631-71.896s-10.878-52.661-30.63-71.894zm-71.927 106.127c-7.844 0-20.706.052-33.046.113-.063-12.882-.149-55.083-.186-68.576h33.232c19.274 0 35.558 15.676 35.558 34.231s-16.284 34.232-35.558 34.232z"/></g></g></svg>