<svg id="Solid" height="512" viewBox="0 0 512 512" width="512" xmlns="http://www.w3.org/2000/svg"><path d="m104 320a8.009 8.009 0 0 0 -8-8h-32a8 8 0 0 0 0 16h32a8.009 8.009 0 0 0 8-8z"/><path d="m56 400a8.009 8.009 0 0 0 8 8h32a8 8 0 0 0 0-16h-32a8.009 8.009 0 0 0 -8 8z"/><path d="m104 160a8.009 8.009 0 0 0 -8-8h-32a8 8 0 0 0 0 16h32a8.009 8.009 0 0 0 8-8z"/><path d="m104 240a8.009 8.009 0 0 0 -8-8h-32a8 8 0 0 0 0 16h32a8.009 8.009 0 0 0 8-8z"/><path d="m88 88h8a8 8 0 0 0 0-16h-32a8 8 0 0 0 0 16z"/><path d="m424 32h-272v416h272zm-248 128v-96a8 8 0 0 1 8-8h208a8 8 0 0 1 8 8v96a8 8 0 0 1 -8 8h-208a8 8 0 0 1 -8-8zm144 264h-16a8 8 0 0 1 0-16h16a8 8 0 0 1 0 16zm0-32h-16a8 8 0 0 1 0-16h16a8 8 0 0 1 0 16zm80 32h-48a8 8 0 0 1 0-16h48a8 8 0 0 1 0 16zm0-32h-48a8 8 0 0 1 0-16h48a8 8 0 0 1 0 16z"/><path d="m112 480h344v-432h-16v408a8 8 0 0 1 -8 8h-342.624a24.039 24.039 0 0 0 22.624 16z"/><path d="m192 72h192v80h-192z"/><path d="m120 80a24.028 24.028 0 0 1 -24 24h-8v32h8a24 24 0 0 1 0 48h-8v32h8a24 24 0 0 1 0 48h-8v32h8a24 24 0 0 1 0 48h-8v32h8a24 24 0 0 1 0 48h-8v24h48v-416h-48v24h8a24.028 24.028 0 0 1 24 24z"/></svg>