<svg xmlns="http://www.w3.org/2000/svg" width="476.525" height="375.78" viewBox="0 0 476.525 375.78">
  <g id="Group_22" data-name="Group 22" transform="translate(-253 -306.749)">
    <g id="computer-display" transform="translate(253 273.287)">
      <path id="Path_71" data-name="Path 71" d="M442.754,67.283H33.769A33.815,33.815,0,0,0,0,101.053V301.706a33.816,33.816,0,0,0,33.769,33.77h176.82v30.263H136.918a10.041,10.041,0,0,0-10.042,10.041V399.2a10.041,10.041,0,0,0,10.043,10.042h202.69A10.042,10.042,0,0,0,349.652,399.2V375.78a10.042,10.042,0,0,0-10.041-10.04H265.955V335.476h176.8a33.815,33.815,0,0,0,33.77-33.77V101.053A33.817,33.817,0,0,0,442.754,67.283ZM429.069,288.02H47.457V114.74H429.069Z" fill="#999"/>
    </g>
    <path id="Rectangle_255" data-name="Rectangle 255" d="M.165,2.756,511,0l-.165,33.934L0,36.689Z" transform="translate(314.909 306.749) rotate(41)" fill="#ff0003"/>
  </g>
</svg>
