<svg xmlns="http://www.w3.org/2000/svg" width="476.526" height="341.958" viewBox="0 0 476.526 341.958">
  <g id="字幕機-none" transform="translate(0 -67.283)">
    <path id="Path_67" data-name="Path 67" d="M442.754,67.283H33.769A33.815,33.815,0,0,0,0,101.053V301.706a33.816,33.816,0,0,0,33.769,33.77h176.82v30.263H136.918a10.041,10.041,0,0,0-10.042,10.04V399.2a10.041,10.041,0,0,0,10.042,10.042H339.609A10.042,10.042,0,0,0,349.652,399.2v-23.42a10.042,10.042,0,0,0-10.043-10.04H265.955V335.476h176.8a33.815,33.815,0,0,0,33.77-33.77V101.053A33.817,33.817,0,0,0,442.754,67.283ZM429.069,288.02H47.457V114.74H429.069Z" fill="#e4e4e4"/>
  </g>
</svg>
