<?xml version="1.0"?>
<svg xmlns="http://www.w3.org/2000/svg" xmlns:xlink="http://www.w3.org/1999/xlink" xmlns:svgjs="http://svgjs.com/svgjs" version="1.1" width="512" height="512" x="0" y="0" viewBox="0 0 476.524 476.524" style="enable-background:new 0 0 512 512" xml:space="preserve" class=""><g transform="matrix(1,0,0,1,1.1368683772161603e-13,0)">
<path xmlns="http://www.w3.org/2000/svg" d="M442.754,67.283H33.769C15.155,67.283,0,82.437,0,101.053v200.653c0,18.615,15.155,33.77,33.769,33.77h176.82v30.263  h-73.671c-5.547,0-10.042,4.496-10.042,10.04v23.42c0,5.547,4.495,10.042,10.042,10.042h202.691c5.547,0,10.043-4.495,10.043-10.042  v-23.42c0-5.544-4.496-10.04-10.043-10.04h-73.654v-30.263h176.801c18.615,0,33.77-15.154,33.77-33.77V101.053  C476.524,82.437,461.37,67.283,442.754,67.283z M429.069,288.02H47.457V114.74h381.612V288.02z" fill="#3bad00" data-original="#000000" style="" class=""/>
<g xmlns="http://www.w3.org/2000/svg">
</g>
<g xmlns="http://www.w3.org/2000/svg">
</g>
<g xmlns="http://www.w3.org/2000/svg">
</g>
<g xmlns="http://www.w3.org/2000/svg">
</g>
<g xmlns="http://www.w3.org/2000/svg">
</g>
<g xmlns="http://www.w3.org/2000/svg">
</g>
<g xmlns="http://www.w3.org/2000/svg">
</g>
<g xmlns="http://www.w3.org/2000/svg">
</g>
<g xmlns="http://www.w3.org/2000/svg">
</g>
<g xmlns="http://www.w3.org/2000/svg">
</g>
<g xmlns="http://www.w3.org/2000/svg">
</g>
<g xmlns="http://www.w3.org/2000/svg">
</g>
<g xmlns="http://www.w3.org/2000/svg">
</g>
<g xmlns="http://www.w3.org/2000/svg">
</g>
<g xmlns="http://www.w3.org/2000/svg">
</g>
</g></svg>
