<?xml version="1.0"?>
<svg xmlns="http://www.w3.org/2000/svg" xmlns:xlink="http://www.w3.org/1999/xlink" xmlns:svgjs="http://svgjs.com/svgjs" version="1.1" width="512" height="512" x="0" y="0" viewBox="0 0 509 509" style="enable-background:new 0 0 512 512" xml:space="preserve" class=""><g><g xmlns="http://www.w3.org/2000/svg"><path d="m464.844 55.928v420.784c0 17.841-14.094 32.289-31.456 32.289h-311.937c-12.231 0-22.827-7.161-28.021-17.622-2.196-4.393-3.435-9.379-3.435-14.666v-4.393l.354-.489h245.059v-70.896c0-7.838 6.412-14.167 14.312-14.167h69.324v-356.353c0-2.321-.26-4.59-.739-6.776h15.083c1.488 0 2.956.104 4.393.312 15.28 2.196 27.063 15.666 27.063 31.977z" fill="#6293c7" data-original="#c8beb9" style="" class=""/><path d="m419.921 31.456v356.352h-68.753c-7.835 0-14.194 6.329-14.194 14.167v70.896h-261.29c-17.415 0-31.527-14.083-31.527-31.456v-409.959c-.001-17.373 14.111-31.456 31.527-31.456h312.7c15.072 0 27.687 10.565 30.804 24.68.475 2.186.733 4.455.733 6.776z" fill="#f9f3f1" data-original="#f9f3f1" style="" class=""/><path d="m338.981 286.966c-4.142 0-7.5-3.358-7.5-7.5v-21.841c0-4.142 3.358-7.5 7.5-7.5s7.5 3.358 7.5 7.5v21.841c0 4.142-3.358 7.5-7.5 7.5z" fill="#a59da7" data-original="#a59da7" style="" class=""/><path d="m355.43 62.39v185.63c0 7.52-6.09 13.61-13.61 13.61h-5.67c-7.52 0-13.6-6.09-13.6-13.61v-185.63c0-7.51 6.08-13.6 13.6-13.6h5.67c7.52 0 13.61 6.09 13.61 13.6z" fill="#8ac9fe" data-original="#8ac9fe" style="" class=""/><path d="m322.545 141.562h32.882v82.46h-32.882z" fill="#fe646f" data-original="#fe646f" style="" class=""/><path d="m338.179 473.021c-.976 1.011-2.679.316-2.679-1.093v-71.066c0-5.149 2.474-9.696 6.259-12.47 2.474-1.827 5.498-2.892 8.753-2.892h68.425c1.379 0 2.079 1.668 1.119 2.663z" fill="#afbbcf" data-original="#e1d3ce" style="" class=""/><path d="m187.953 166.317h63.418c7.009 0 12.309 6.271 11.236 13.198-6.438 41.583-42.762 73.845-86.03 73.845-47.75 0-87.043-39.293-87.043-87.043 0-43.268 32.262-79.592 73.845-86.03 6.926-1.072 13.198 4.227 13.198 11.236v63.418c0 6.283 5.094 11.376 11.376 11.376z" fill="#8ac9fe" data-original="#8ac9fe" style="" class=""/><path d="m206.537 126.023v-64.605c0-6.984 6.231-12.287 13.137-11.246 18.532 2.793 35.829 11.444 49.238 24.852 16.537 16.537 25.837 38.989 25.837 62.375h-76.836c-6.283 0-11.376-5.093-11.376-11.376z" fill="#ffe177" data-original="#ffe177" style=""/><path d="m106.576 472.873h-30.89c-17.422 0-31.528-14.086-31.528-31.456v-409.959c0-17.37 14.106-31.456 31.528-31.456h30.89c-17.422 0-31.528 14.086-31.528 31.456v409.959c0 17.37 14.106 31.456 31.528 31.456z" fill="#afbbcf" data-original="#e1d3ce" style="" class=""/><path d="m387.5 106.47v43.53c0 4.14-3.36 7.5-7.5 7.5s-7.5-3.36-7.5-7.5v-43.53c0-4.51-1.76-8.75-4.95-11.95-3.18-3.19-7.42-4.94-11.93-4.94-.06 0-.13 0-.19.01v-15.01h.19c8.52 0 16.52 3.32 22.54 9.34 6.03 6.04 9.34 14.04 9.34 22.55z" fill="#8ac9fe" data-original="#8ac9fe" style="" class=""/><g fill="#a59da7"><path d="m338.06 324.909h-241.105c-4.142 0-7.5-3.358-7.5-7.5s3.358-7.5 7.5-7.5h241.105c4.142 0 7.5 3.358 7.5 7.5s-3.358 7.5-7.5 7.5z" fill="#a59da7" data-original="#a59da7" style="" class=""/><path d="m338.06 364.184h-241.105c-4.142 0-7.5-3.358-7.5-7.5s3.358-7.5 7.5-7.5h241.105c4.142 0 7.5 3.358 7.5 7.5s-3.358 7.5-7.5 7.5z" fill="#a59da7" data-original="#a59da7" style="" class=""/><path d="m265.803 403.459h-171.229c-4.142 0-7.5-3.358-7.5-7.5s3.358-7.5 7.5-7.5h171.229c4.142 0 7.5 3.358 7.5 7.5s-3.358 7.5-7.5 7.5z" fill="#a59da7" data-original="#a59da7" style="" class=""/></g></g></g></svg>
