<?xml version="1.0" encoding="iso-8859-1"?>
<!-- Generator: Adobe Illustrator 19.0.0, SVG Export Plug-In . SVG Version: 6.00 Build 0)  -->
<svg version="1.1" id="Layer_1" xmlns="http://www.w3.org/2000/svg" xmlns:xlink="http://www.w3.org/1999/xlink" x="0px" y="0px"
	 viewBox="0 0 512.001 512.001" style="enable-background:new 0 0 512.001 512.001;" xml:space="preserve">
<g transform="translate(0 -1)">
	<path style="fill:#243442;" d="M113.593,424.725H9.993c-5.517,0-9.993-4.476-9.993-9.993v-15.325c0-5.517,4.476-9.993,9.993-9.993
		h103.601c5.517,0,9.993,4.476,9.993,9.993v15.325C123.586,420.249,119.111,424.725,113.593,424.725"/>
	<path style="fill:#ECF0F1;" d="M503.888,177.552H132.415v-35.31h371.474c4.484,0,8.113,3.628,8.113,8.113v19.085
		C512.001,173.924,508.373,177.552,503.888,177.552"/>
	<path style="fill:#35495E;" d="M70.621,159.897c0-19.5,15.81-35.31,35.31-35.31v-18.609c0-9.225-7.477-16.702-16.702-16.702H34.357
		c-9.225,0-16.702,7.477-16.702,16.702v283.436h88.276V195.207C86.431,195.207,70.621,179.397,70.621,159.897"/>
	<g>
		<path style="fill:#C03A2B;" d="M456.448,148.483c1.721-1.721,2.586-3.981,2.586-6.241h-21.31l-29.069,29.069
			c-1.721,1.721-2.586,3.981-2.586,6.241h21.31L456.448,148.483z"/>
		<path style="fill:#C03A2B;" d="M385.827,148.483c1.721-1.721,2.586-3.981,2.586-6.241h-21.31l-29.069,29.069
			c-1.721,1.721-2.586,3.981-2.586,6.241h21.31L385.827,148.483z"/>
		<path style="fill:#C03A2B;" d="M315.207,148.483c1.721-1.721,2.586-3.981,2.586-6.241h-21.31l-29.069,29.069
			c-1.721,1.721-2.586,3.981-2.586,6.241h21.31L315.207,148.483z"/>
		<path style="fill:#C03A2B;" d="M244.586,148.483c1.721-1.721,2.586-3.981,2.586-6.241h-21.31l-29.069,29.069
			c-1.721,1.721-2.586,3.981-2.586,6.241h21.31L244.586,148.483z"/>
	</g>
	<path style="fill:#95A5A5;" d="M141.241,159.897c0,19.5-15.81,35.31-35.31,35.31s-35.31-15.81-35.31-35.31s15.81-35.31,35.31-35.31
		S141.241,140.397,141.241,159.897"/>
</g>
<g>
</g>
<g>
</g>
<g>
</g>
<g>
</g>
<g>
</g>
<g>
</g>
<g>
</g>
<g>
</g>
<g>
</g>
<g>
</g>
<g>
</g>
<g>
</g>
<g>
</g>
<g>
</g>
<g>
</g>
</svg>
