<svg xmlns="http://www.w3.org/2000/svg" width="512" height="192" viewBox="0 0 512 192">
  <g id="溫度-低" transform="translate(512 -160) rotate(90)">
    <path id="Path_66" data-name="Path 66" d="M304,64V288H208V64a48,48,0,0,1,96,0Z" fill="#90a4ae"/>
    <path id="Path_67" data-name="Path 67" d="M336,416a80,80,0,1,1-128-64V288h96v64A79.7,79.7,0,0,1,336,416Z" fill="#53cb88"/>
    <g id="Group_23" data-name="Group 23">
      <path id="Path_68" data-name="Path 68" d="M256,512a96,96,0,0,1-64-167.552V64a64,64,0,0,1,128,0V344.448A96,96,0,0,1,256,512Zm0-480a32.053,32.053,0,0,0-32,32V352a15.989,15.989,0,0,1-6.368,12.768,64,64,0,1,0,76.736,0A15.989,15.989,0,0,1,288,352V64A32.053,32.053,0,0,0,256,32ZM208,352h0Z" fill="#eceff1"/>
      <path id="Path_69" data-name="Path 69" d="M272,128a16,16,0,0,0,0,32h48V128Z" fill="#eceff1"/>
      <path id="Path_70" data-name="Path 70" d="M272,224a16,16,0,0,0,0,32h48V224Z" fill="#eceff1"/>
    </g>
  </g>
</svg>
