<?xml version="1.0" encoding="iso-8859-1"?>
<!-- Generator: Adobe Illustrator 19.0.0, SVG Export Plug-In . SVG Version: 6.00 Build 0)  -->
<svg version="1.1" id="Capa_1" xmlns="http://www.w3.org/2000/svg" xmlns:xlink="http://www.w3.org/1999/xlink" x="0px" y="0px"
	 viewBox="0 0 511.997 511.997" style="enable-background:new 0 0 511.997 511.997;" xml:space="preserve">
<path style="fill:#4398D1;" d="M424.095,30.387c-3.957-15.316-17.763-26.023-33.581-26.032H130.192
	c-19.168,0-34.71,15.541-34.71,34.71v162.961c0,12.782,1.571,25.52,4.686,37.92l0,0c2.655,10.656,4.191,21.563,4.599,32.54
	l6.942,201.662c0.651,18.691,16.001,33.503,34.71,33.495h227.955c18.708,0.009,34.059-14.804,34.71-33.495l6.942-201.662
	c0.408-10.977,1.944-21.884,4.599-32.54l0,0c3.089-14.691,4.634-29.677,4.599-44.688"/>
<path style="fill:#3E8CC7;" d="M424.095,30.387c-3.957-15.316-17.763-26.023-33.581-26.032h-63.605
	c15.819,0.009,29.625,10.717,33.581,26.032l1.128,164.87c0.009,15.021-1.562,29.998-4.686,44.688
	c-2.699,10.647-4.235,21.563-4.599,32.54l-6.942,201.662c-0.651,18.691-16.001,33.503-34.71,33.495h63.692
	c18.708,0.009,34.059-14.804,34.71-33.495l6.942-201.662c0.408-10.977,1.944-21.884,4.599-32.54
	c3.089-14.691,4.634-29.677,4.599-44.688L424.095,30.387z"/>
<g>
	<path style="fill:#EBEBEB;" d="M164.902,438.223h17.355c9.588,0,17.355,7.766,17.355,17.355l0,0
		c0,9.589-7.766,17.355-17.355,17.355h-17.355c-9.589,0-17.355-7.766-17.355-17.355l0,0
		C147.547,445.99,155.313,438.223,164.902,438.223z"/>
	<path style="fill:#EBEBEB;" d="M251.675,438.223h17.355c9.589,0,17.355,7.766,17.355,17.355l0,0
		c0,9.589-7.766,17.355-17.355,17.355h-17.355c-9.588,0-17.355-7.766-17.355-17.355l0,0
		C234.321,445.99,242.087,438.223,251.675,438.223z"/>
	<path style="fill:#EBEBEB;" d="M164.902,368.804h17.355c9.588,0,17.355,7.766,17.355,17.355l0,0
		c0,9.589-7.766,17.355-17.355,17.355h-17.355c-9.589,0-17.355-7.766-17.355-17.355l0,0
		C147.547,376.571,155.313,368.804,164.902,368.804z"/>
	<path style="fill:#EBEBEB;" d="M251.675,368.804h17.355c9.589,0,17.355,7.766,17.355,17.355l0,0
		c0,9.589-7.766,17.355-17.355,17.355h-17.355c-9.588,0-17.355-7.766-17.355-17.355l0,0
		C234.321,376.571,242.087,368.804,251.675,368.804z"/>
	<path style="fill:#EBEBEB;" d="M164.902,299.385h17.355c9.588,0,17.355,7.766,17.355,17.355l0,0
		c0,9.589-7.766,17.355-17.355,17.355h-17.355c-9.589,0-17.355-7.766-17.355-17.355l0,0
		C147.547,307.151,155.313,299.385,164.902,299.385z"/>
	<path style="fill:#EBEBEB;" d="M251.675,299.385h17.355c9.589,0,17.355,7.766,17.355,17.355l0,0
		c0,9.589-7.766,17.355-17.355,17.355h-17.355c-9.588,0-17.355-7.766-17.355-17.355l0,0
		C234.321,307.151,242.087,299.385,251.675,299.385z"/>
	<path style="fill:#EBEBEB;" d="M338.449,438.223h17.355c9.589,0,17.355,7.766,17.355,17.355l0,0
		c0,9.589-7.766,17.355-17.355,17.355h-17.355c-9.588,0-17.355-7.766-17.355-17.355l0,0
		C321.094,445.99,328.861,438.223,338.449,438.223z"/>
	<path style="fill:#EBEBEB;" d="M338.449,368.804h17.355c9.589,0,17.355,7.766,17.355,17.355l0,0
		c0,9.589-7.766,17.355-17.355,17.355h-17.355c-9.588,0-17.355-7.766-17.355-17.355l0,0
		C321.094,376.571,328.861,368.804,338.449,368.804z"/>
	<path style="fill:#EBEBEB;" d="M338.449,299.385h17.355c9.589,0,17.355,7.766,17.355,17.355l0,0
		c0,9.589-7.766,17.355-17.355,17.355h-17.355c-9.588,0-17.355-7.766-17.355-17.355l0,0
		C321.094,307.151,328.861,299.385,338.449,299.385z"/>
</g>
<path style="fill:#87CED9;" d="M164.902,56.419h190.902c9.589,0,17.355,7.766,17.355,17.355v138.838
	c0,9.589-7.766,17.355-17.355,17.355H164.902c-9.589,0-17.355-7.766-17.355-17.355V73.773
	C147.547,64.185,155.313,56.419,164.902,56.419z"/>
<path style="fill:#6CBBC7;" d="M355.804,56.419h-8.677l-199.58,130.161v26.032c0,9.589,7.766,17.355,17.355,17.355h190.902
	c9.589,0,17.355-7.766,17.355-17.355V73.773C373.159,64.185,365.384,56.419,355.804,56.419z"/>
<rect x="147.512" y="255.998" style="fill:#FDB62F;" width="34.71" height="17.355"/>
<rect x="208.254" y="255.998" style="fill:#DE4C3C;" width="34.71" height="17.355"/>
<rect x="277.673" y="255.998" style="fill:#FDB62F;" width="34.71" height="17.355"/>
<rect x="338.414" y="255.998" style="fill:#88B337;" width="34.71" height="17.355"/>
<path style="fill:#FDB62F;" d="M269.03,30.387h216.934c14.378,0,26.032,11.654,26.032,26.032v112.806
	c0,14.378-11.654,26.032-26.032,26.032H269.03c-14.378,0-26.032-11.654-26.032-26.032V56.419
	C242.998,42.04,254.652,30.387,269.03,30.387z"/>
<path style="fill:#FFA83D;" d="M288.901,195.257h197.063c14.378,0,26.032-11.654,26.032-26.032V56.419
	c-0.017-2.169-0.312-4.321-0.868-6.421L288.901,195.257z"/>
<circle style="fill:#DE4C3C;" cx="433.866" cy="143.192" r="17.355"/>
<g>
	<rect x="268.995" y="65.096" style="fill:#F46B27;" width="147.515" height="17.355"/>
	<rect x="268.995" y="117.16" style="fill:#F46B27;" width="17.355" height="17.355"/>
	<rect x="303.705" y="117.16" style="fill:#F46B27;" width="17.355" height="17.355"/>
	<rect x="338.414" y="117.16" style="fill:#F46B27;" width="17.355" height="17.355"/>
	<rect x="373.124" y="117.16" style="fill:#F46B27;" width="17.355" height="17.355"/>
	<rect x="268.995" y="151.87" style="fill:#F46B27;" width="121.483" height="17.355"/>
</g>
<g>
	<path style="fill:#87CED9;" d="M52.53,169.225c-23.724-23.724-23.724-62.182-0.009-85.906c0,0,0,0,0.009-0.009l12.235,12.322
		c-16.938,16.938-16.938,44.411,0,61.349L52.53,169.225z"/>
	<path style="fill:#87CED9;" d="M27.973,193.955C-9.314,156.686-9.323,96.248,27.938,58.97c0.009-0.009,0.017-0.017,0.035-0.035
		l12.322,12.322c-30.501,30.492-30.51,79.945-0.017,110.446c0.009,0.009,0.009,0.009,0.017,0.017L27.973,193.955z"/>
</g>
<circle style="fill:#F46B27;" cx="459.898" cy="143.192" r="17.355"/>
<g>
</g>
<g>
</g>
<g>
</g>
<g>
</g>
<g>
</g>
<g>
</g>
<g>
</g>
<g>
</g>
<g>
</g>
<g>
</g>
<g>
</g>
<g>
</g>
<g>
</g>
<g>
</g>
<g>
</g>
</svg>
