<svg xmlns="http://www.w3.org/2000/svg" width="472" height="512" viewBox="0 0 472 512">
  <g id="詳細內容" transform="translate(-20 0)">
    <path id="Path_28" data-name="Path 28" d="M46.38,0V67.718h56.39V97.66H46.38v56.719h56.39v29.942H46.38V241.03h56.39v29.942H46.38v56.709h56.39v29.942H46.38v56.719h56.39v29.942H46.38V512H492V0ZM211.49,425.7,167.82,382.12l21.213-21.172,22.457,22.411,48.518-48.423,21.213,21.172Zm0-126.146-43.669-43.584L189.034,234.8l22.456,22.412,48.518-48.424,21.213,21.172Zm0-126.146-43.669-43.584,21.213-21.172,22.456,22.412,48.518-48.424,21.213,21.172Zm213,231.762H327.2V375.231h97.284Zm0-134.116H327.2V241.115h97.284Zm0-124.307H327.2V116.808h97.284Z" fill="#666"/>
    <path id="Path_29" data-name="Path 29" d="M20,327.68H46.38v29.942H20Z" fill="#666"/>
    <path id="Path_30" data-name="Path 30" d="M20,414.341H46.38v29.942H20Z" fill="#666"/>
    <path id="Path_31" data-name="Path 31" d="M20,154.378H46.38V184.32H20Z" fill="#666"/>
    <path id="Path_32" data-name="Path 32" d="M20,241.029H46.38v29.942H20Z" fill="#666"/>
    <path id="Path_33" data-name="Path 33" d="M20,67.718H46.38V97.66H20Z" fill="#666"/>
  </g>
</svg>
